<?xml version="1.0" encoding="UTF-8" standalone="no"?>
<!-- Created with Inkscape (http://www.inkscape.org/) -->

<svg
   width="36mm"
   height="36mm"
   viewBox="0 0 35.99999 36"
   version="1.1"
   id="svg1"
   xml:space="preserve"
   sodipodi:docname="VECTOR LOGO VETORIAL.svg"
   inkscape:version="1.4.3 (0d15f75, 2025-12-25)"
   xmlns:inkscape="http://www.inkscape.org/namespaces/inkscape"
   xmlns:sodipodi="http://sodipodi.sourceforge.net/DTD/sodipodi-0.dtd"
   xmlns="http://www.w3.org/2000/svg"
   xmlns:svg="http://www.w3.org/2000/svg"><sodipodi:namedview
     id="namedview1"
     pagecolor="#ffffff"
     bordercolor="#000000"
     borderopacity="0.25"
     inkscape:showpageshadow="2"
     inkscape:pageopacity="0.0"
     inkscape:pagecheckerboard="0"
     inkscape:deskcolor="#d1d1d1"
     inkscape:document-units="mm"
     inkscape:zoom="2.905606"
     inkscape:cx="152.63597"
     inkscape:cy="70.037024"
     inkscape:window-width="2560"
     inkscape:window-height="1417"
     inkscape:window-x="-8"
     inkscape:window-y="-8"
     inkscape:window-maximized="1"
     inkscape:current-layer="layer1"><inkscape:page
       x="0"
       y="0"
       width="35.999992"
       height="36"
       id="page2"
       margin="0"
       bleed="0" /></sodipodi:namedview><defs
     id="defs1" /><g
     inkscape:label="Layer 1"
     inkscape:groupmode="layer"
     id="layer1"><path
       style="fill:#ffffff;fill-opacity:1"
       d="M 18.083966,26.465381 C 17.327055,25.532231 13.550712,20.378761 11.443564,17.4034 10.72216,16.38476 9.2088395,14.36353 8.0806305,12.91178 c -1.128208,-1.45174 -2.051288,-2.73166 -2.051288,-2.84427 0,-0.1126032 0.803672,-0.1985232 1.785937,-0.1909332 l 1.785937,0.0138 3.9687505,5.5699432 c 2.182812,3.063461 4.534372,6.361231 5.225689,7.328381 0.691316,0.96715 1.361086,1.79319 1.488376,1.83565 0.189213,0.0631 2.825141,-3.38407 4.530727,-5.92514 1.299706,-1.936381 6.658808,-8.7967942 6.962872,-8.9134742 0.200188,-0.0768 0.974747,-0.0611 1.72124,0.0348 l 1.35726,0.1745 -1.410821,1.8520832 c -3.145333,4.1291 -8.716095,11.634971 -9.873787,13.303631 -0.67831,0.97769 -1.360682,1.86509 -1.516382,1.97201 -0.1557,0.10691 -0.955974,0.19621 -1.778386,0.19843 -1.369737,0.004 -1.553862,-0.0682 -2.192789,-0.85584 z m -5.716895,-2.08311 c -0.939137,-1.0815 -2.7790835,-3.379 -4.0887705,-5.10555 C 6.9686135,17.55017 4.8971825,14.87455 3.6751225,13.33089 2.4530624,11.78723 1.3371555,10.37541 1.1953305,10.19351 0.99438455,9.9357768 1.3512515,9.8627768 2.8120874,9.8627768 H 4.6867089 L 5.7401335,11.38413 c 1.787292,2.5812 5.8388885,8.053861 7.1906255,9.712671 1.368668,1.67958 1.777191,3.02405 1.362303,4.48339 l -0.21847,0.76845 z"
       id="path1"
       sodipodi:nodetypes="cscssccscscccssccccssscscssscs" /></g></svg>
