<?xml version="1.0" encoding="UTF-8"?>
<svg width="220mm" height="37mm" viewBox="0 0 220 37" version="1.1" xmlns="http://www.w3.org/2000/svg">
  <g>
    <path fill="#ffffff" d="m 49.781665,28.355375 c -1.715576,-0.68427 -1.827805,-1.27366 -1.726447,-9.066881 0.08384,-6.44663 0.120613,-6.88111 0.6419,-7.5849 1.144569,-1.545283 1.102755,-1.540303 12.940789,-1.540303 h 10.847917 l 0.08136,1.124483 0.08136,1.12448 H 62.614843 c -9.797001,0 -10.050387,0.0131 -10.741098,0.55644 -0.677063,0.53257 -0.704123,0.64888 -0.630994,2.71198 l 0.07641,2.15553 9.167268,0.0695 c 10.042878,0.0762 9.642891,0.005 9.3133,1.653141 l -0.158171,0.79086 H 60.414214 51.18687 v 2.91041 c 0,2.58894 0.05114,2.9123 0.463021,2.92748 0.254661,0.009 5.076692,0.002 10.715625,-0.016 l 10.252605,-0.0331 v 1.18338 c 0,1.16633 -0.01429,1.18538 -0.992188,1.32252 -0.545703,0.0765 -5.473573,0.12668 -10.950822,0.11145 -7.89769,-0.022 -10.152092,-0.10485 -10.893441,-0.40054 z" />
    <path fill="#ffffff" d="m 89.154574,28.537725 c -2.749298,-0.44984 -4.38445,-1.11261 -5.730281,-2.32262 -2.006344,-1.80388 -2.680384,-3.34416 -2.816059,-6.43513 -0.150515,-3.429031 0.321482,-4.865921 2.223016,-6.767451 2.731364,-2.731373 4.273318,-3.0312527 15.054577,-2.927883 l 8.202083,0.0786 0.0814,1.124484 0.0814,1.12448 h -7.807403 c -9.601136,0 -11.285578,0.2929 -13.174422,2.29087 -1.041549,1.10172 -1.331527,2.08323 -1.330467,4.50333 0.0015,3.336161 1.073841,5.081751 3.907563,6.360631 0.909961,0.41067 2.148774,0.4882 9.643056,0.6035 l 8.598953,0.13229 0.0845,1.0314 c 0.0529,0.64628 -0.0459,1.11405 -0.26458,1.25272 -0.44468,0.28196 -14.990253,0.23918 -16.75321,-0.0493 z" />
    <path fill="#ffffff" d="m 125.81081,28.457425 c -0.1793,-0.1793 -0.27603,-3.03904 -0.27603,-8.16061 v -7.884581 h -5.68854 -5.68854 v -1.19312 -1.193123 l 13.03073,0.0686 13.03073,0.0686 0.0814,1.124484 0.0814,1.12448 h -5.83605 -5.83605 v 8.069791 8.06979 l -0.59531,0.0262 c -0.32742,0.0144 -0.91758,0.0553 -1.31147,0.0908 -0.39389,0.0355 -0.84037,-0.0596 -0.99219,-0.21146 z" />
    <path fill="#ffffff" d="m 155.30041,28.413025 c -2.20225,-0.48591 -2.94119,-0.79993 -4.39679,-1.86843 -2.18925,-1.60706 -3.21176,-4.02573 -3.19819,-7.565081 0.0171,-4.45824 2.54668,-7.43857 7.25592,-8.548853 2.35679,-0.5556497 12.63234,-0.5556497 15.02068,0 4.69437,1.092773 7.20594,4.065433 7.23224,8.561093 0.0322,5.508311 -3.47298,8.648221 -10.08771,9.032591 -2.1976,0.12771 -9.75059,0.34682 -11.82615,0.38906 z m 11.24648,-2.12396 c 3.29155,-0.65691 5.55072,-2.89854 6.10219,-6.052481 0.40129,-2.29468 -0.0684,-4.28398 -1.44291,-6.11248 -1.74991,-2.32786 -3.53916,-2.84896 -11.20084,-3.26244 l -6.22917,-0.33626 -0.0873,1.02384 c -0.048,0.56311 -0.13478,3.72563 -0.19285,7.02782 l -0.10558,6.00398 5.5033,0.11827 c 4.69826,0.10098 5.72416,0.0417 7.65386,-0.44173 z" />
    <path fill="#ffffff" d="m 185.62082,28.544975 c -0.20697,-0.0545 -0.87308,-0.26749 -1.48026,-0.47338 -1.93983,-0.6578 -3.69396,-2.43074 -4.37625,-4.42458 -0.90234,-2.63751 -0.85113,-10.047551 0.0892,-12.891371 1.49672,-4.5250597 4.66885,-6.1068497 13.73229,-6.8447697 4.57298,-0.372451 13.83333,-0.372451 13.83333,0 0,0.127 0.0759,0.635833 0.16854,1.130741 l 0.16854,0.899833 -7.54062,0.0783 c -9.50893,0.0987 -10.87086,0.288083 -12.38472,1.721523 -1.93388,1.83296 -2.41813,3.49533 -2.01281,6.910491 0.49297,4.151631 1.98979,5.863371 5.93615,6.782911 1.05833,0.24651 3.81,0.34662 9.39062,0.3416 l 7.9375,-0.007 v 1.13511 1.13512 l -10.98438,0.0686 c -6.04141,0.0377 -11.18593,0.004 -11.43229,-0.0751 z" />
    <path fill="#ffffff" d="m 44.208832,24.663545 c 0,-0.14817 -2.356979,-5.29323 -5.237734,-11.433461 l -5.237733,-11.163991 h -1.215208 -1.215209 l -5.278906,11.331761 c -2.903398,6.232481 -5.278906,11.433461 -5.278906,11.557741 0,0.12427 0.508 0.22595 1.128889,0.22595 1.081229,0 1.177394,-0.0726 1.821697,-1.37583 l 0.67462,-1.37584 h 7.743542 7.743542 l 0.681979,1.37584 c 0.644322,1.30322 0.740487,1.37583 1.821697,1.37583 0.63039,0 1.146528,-0.10968 1.146528,-0.24373 z m -11.313542,-5.30781 c 0,-0.0579 -1.348438,-0.10526 -2.996528,-0.10526 -1.64809,0 -2.996527,0.0582 -2.996527,0.12936 0,0.2125 4.653332,10.044071 4.841945,10.237821 0.140333,0.14417 0.289444,-0.0782 0.489795,-0.73025 0.16158,-0.52587 0.542968,-1.91674 0.847528,-3.09082 0.304561,-1.17409 0.680604,-2.56787 0.835651,-3.09729 0.155048,-0.52917 0.282114,-1.01614 0.282114,-1.08175 0,-0.0656 0.222222,-0.77646 0.493827,-1.57967 0.271604,-0.80321 0.493827,-1.52099 0.493827,-1.59507 0,-0.0741 -0.64809,-0.13508 -1.440199,-0.13508 -0.79211,0 -1.850634,-0.0479 -2.352276,-0.10643 z" />
    <path fill="#ffffff" d="m 211.99334,28.544975 c -0.72653,-0.19139 -1.99532,-0.7542 -2.81954,-1.25069 -1.80686,-1.08912 -3.42406,-3.22821 -4.16959,-5.51412 -1.04558,-3.20642 -0.94686,-7.820091 0.2318,-10.826601 1.34831,-3.43842 3.73458,-5.3111897 7.3645,-5.7817097 1.39358,-0.180785 3.35323,0.0031 5.06885,0.475484 1.11607,0.30729 1.49219,0.551854 1.49219,0.970484 0,0.768844 -0.38942,1.898376 -0.71208,2.06449 -0.20045,0.10319 -0.86785,-0.06 -1.96354,-0.48126 -1.47703,-0.56751 -2.0395,-0.65659 -3.62594,-0.5743 -2.75109,0.14272 -4.50863,1.20551 -5.72695,3.463503 -0.64687,1.19891 -0.75781,1.79988 -0.76392,4.13651 -0.007,2.668471 0.20463,3.562441 1.17128,4.949711 1.24664,1.78985 2.76976,2.57719 4.98289,2.57719 1.74322,0 2.46793,-0.22093 3.92739,-1.19739 1.66698,-1.11485 1.93833,-0.95146 2.03219,1.22314 0.0756,1.75201 -0.94859,3.29693 -2.93271,4.42347 -1.61948,0.91979 -1.98958,1.01193 -3.71173,0.92399 -1.02654,-0.0524 -2.15405,-0.20279 -2.50558,-0.33412 z" />
  </g>
</svg>
