<?xml version="1.0" encoding="UTF-8" standalone="no"?>
<!-- Created with Inkscape (http://www.inkscape.org/) -->

<svg
   width="220mm"
   height="37mm"
   viewBox="0 0 219.99999 37"
   version="1.1"
   id="svg1"
   xml:space="preserve"
   inkscape:export-filename="VECTOR LOGO VETORIAL.svg"
   inkscape:export-xdpi="96"
   inkscape:export-ydpi="96"
   xmlns:inkscape="http://www.inkscape.org/namespaces/inkscape"
   xmlns:sodipodi="http://sodipodi.sourceforge.net/DTD/sodipodi-0.dtd"
   xmlns="http://www.w3.org/2000/svg"
   xmlns:svg="http://www.w3.org/2000/svg"><sodipodi:namedview
     id="namedview1"
     pagecolor="#ffffff"
     bordercolor="#000000"
     borderopacity="0.25"
     inkscape:showpageshadow="2"
     inkscape:pageopacity="0.0"
     inkscape:pagecheckerboard="0"
     inkscape:deskcolor="#d1d1d1"
     inkscape:document-units="mm"><inkscape:page
       x="0"
       y="0"
       width="220"
       height="37"
       id="page2"
       margin="0"
       bleed="0" /></sodipodi:namedview><defs
     id="defs1" /><g
     inkscape:label="Layer 1"
     inkscape:groupmode="layer"
     id="layer1"><path
       style="fill:#ffffff;fill-opacity:1"
       d="m 49.781665,28.355375 c -1.715576,-0.68427 -1.827805,-1.27366 -1.726447,-9.066881 0.08384,-6.44663 0.120613,-6.88111 0.6419,-7.5849 1.144569,-1.545283 1.102755,-1.540303 12.940789,-1.540303 h 10.847917 l 0.08136,1.124483 0.08136,1.12448 H 62.614843 c -9.797001,0 -10.050387,0.0131 -10.741098,0.55644 -0.677063,0.53257 -0.704123,0.64888 -0.630994,2.71198 l 0.07641,2.15553 9.167268,0.0695 c 10.042878,0.0762 9.642891,0.005 9.3133,1.653141 l -0.158171,0.79086 H 60.414214 51.18687 v 2.91041 c 0,2.58894 0.05114,2.9123 0.463021,2.92748 0.254661,0.009 5.076692,0.002 10.715625,-0.016 l 10.252605,-0.0331 v 1.18338 c 0,1.16633 -0.01429,1.18538 -0.992188,1.32252 -0.545703,0.0765 -5.473573,0.12668 -10.950822,0.11145 -7.89769,-0.022 -10.152092,-0.10485 -10.893441,-0.40054 z m 39.372909,0.18235 c -2.749298,-0.44984 -4.38445,-1.11261 -5.730281,-2.32262 -2.006344,-1.80388 -2.680384,-3.34416 -2.816059,-6.43513 -0.150515,-3.429031 0.321482,-4.865921 2.223016,-6.767451 2.731364,-2.731373 4.273318,-3.0312527 15.054577,-2.927883 l 8.202083,0.0786 0.0814,1.124484 0.0814,1.12448 h -7.807403 c -9.601136,0 -11.285578,0.2929 -13.174422,2.29087 -1.041549,1.10172 -1.331527,2.08323 -1.330467,4.50333 0.0015,3.336161 1.073841,5.081751 3.907563,6.360631 0.909961,0.41067 2.148774,0.4882 9.643056,0.6035 l 8.598953,0.13229 0.0845,1.0314 c 0.0529,0.64628 -0.0459,1.11405 -0.26458,1.25272 -0.44468,0.28196 -14.990253,0.23918 -16.75321,-0.0493 z m 36.656236,-0.0803 c -0.1793,-0.1793 -0.27603,-3.03904 -0.27603,-8.16061 v -7.884581 h -5.68854 -5.68854 v -1.19312 -1.193123 l 13.03073,0.0686 13.03073,0.0686 0.0814,1.124484 0.0814,1.12448 h -5.83605 -5.83605 v 8.069791 8.06979 l -0.59531,0.0262 c -0.32742,0.0144 -0.91758,0.0553 -1.31147,0.0908 -0.39389,0.0355 -0.84037,-0.0596 -0.99219,-0.21146 z m 29.4896,-0.0444 c -2.20225,-0.48591 -2.94119,-0.79993 -4.39679,-1.86843 -2.18925,-1.60706 -3.21176,-4.02573 -3.19819,-7.565081 0.0171,-4.45824 2.54668,-7.43857 7.25592,-8.548853 2.35679,-0.5556497 12.63234,-0.5549497 13.90625,9.44e-4 2.9293,0.127816 5.49281,1.365606 6.91929,3.340376 1.87942,2.603841 2.20341,6.990701 0.7399,10.017041 -1.47645,3.05249 -3.29062,4.18373 -7.25592,4.52447 -4.29062,0.36861 -10.62088,0.30987 -14.00045,-0.12999 z m 13.66406,-2.18813 c 3.22134,-0.5398 4.52518,-1.65893 5.09099,-4.371831 0.43614,-2.09131 0.0994,-4.60006 -0.81349,-6.05967 -1.07651,-1.72123 -2.27014,-2.330923 -5.05076,-2.579343 l -2.21354,-0.19786 -2.24609,-0.0152 c -2.51713,-0.0171 -4.67333,0.399983 -5.88542,1.138073 -1.62659,0.99041 -2.47788,2.48933 -2.6338,4.63639 -0.17359,2.389051 0.45084,4.628221 1.81217,6.497131 0.92046,1.26318 1.60494,1.69067 3.46656,2.16596 1.85524,0.47364 6.66388,0.25024 8.47338,-0.39346 z m 20.74557,2.18074 c -1.90626,-0.39066 -3.92726,-1.30562 -5.22135,-2.36419 l -0.79635,-0.65123 0.0853,-0.81823 c 0.0469,-0.45003 0.13773,-0.95267 0.20183,-1.1169 0.0937,-0.24 0.59088,0.0942 2.35521,1.58482 2.82691,2.38748 4.50354,3.07103 7.67448,3.1291 2.46194,0.0451 3.50979,-0.28638 4.58646,-1.45012 0.98672,-1.06645 1.33071,-1.98253 1.33071,-3.54471 0,-1.38838 -0.26978,-2.06953 -1.19828,-3.02357 -0.86485,-0.88873 -1.15632,-1.04191 -5.58281,-2.93588 -2.74349,-1.17412 -5.26619,-2.458 -5.60602,-2.85307 -1.28854,-1.49778 -1.66854,-2.82267 -1.37136,-4.78094 0.34061,-2.245353 1.64788,-4.005383 3.8535,-5.186263 1.11635,-0.59788 1.59636,-0.70142 4.03699,-0.8706 3.02892,-0.2094997 5.30043,0.01983 7.65313,0.772493 1.87697,0.6006 3.78349,1.6476 3.78349,2.07798 0,0.13099 -0.14758,0.66639 -0.32797,1.18977 -0.39388,1.14175 -0.40636,1.14722 -2.72854,1.19348 -2.30291,0.0459 -2.95604,-0.13073 -5.11719,-1.38408 -1.74333,-1.01091 -4.79779,-1.44308 -6.67812,-0.94488 -1.51073,0.39993 -2.41736,1.11883 -3.09375,2.45317 -0.83681,1.65076 -0.69883,3.25776 0.38911,4.53247 1.23264,1.44426 2.02161,1.83086 6.93281,3.39672 6.40161,2.04096 8.05968,3.12866 9.09115,5.968411 0.42903,1.18162 0.50009,1.64039 0.50009,3.22656 0,2.32163 -0.63127,3.98619 -2.24142,5.91131 -2.11067,2.52239 -4.93935,3.52513 -9.96771,3.53307 -1.90625,0.003 -2.99886,-0.0987 -4.36458,-0.40656 z"
       id="path1" /><path
       style="fill:#ffffff;fill-opacity:1"
       d="m 0,18.499996 v -8.68854 l 0.4356771,0.0809 c 0.2396224,0.0445 0.64376901,0.18935 0.89810404,0.32189 l 0.46242301,0.24097 6.1192182,10.53439 6.1192186,10.534381 1.0583333,0.15875 1.0583333,0.15875 0.8201027,-1.42351 c 0.4510564,-0.78293 3.5074869,-6.06854 6.7920679,-11.745791 3.284581,-5.677251 6.002892,-10.349641 6.040691,-10.38309 0.03779,-0.0335 0.506771,0.0716 1.042173,0.23353 0.535402,0.16191 1.035527,0.2943 1.111389,0.29421 0.07586,-9e-5 0.138111,3.92406 0.138111,8.72035 v 8.720421 l -0.595313,0.0262 c -0.327421,0.0144 -1.047795,0.0553 -1.600832,0.0909 l -1.005521,0.0646 V 13.677453 c 0,-5.64271 -0.02995,-7.8635397 -0.106133,-7.8635397 -0.05838,0 -2.7859279,4.6870727 -6.061012,10.4156717 -5.6100471,9.811132 -5.9936097,10.393831 -6.5107422,9.89167 C 9.7869926,25.576695 3.7041668,15.089062 3.7041668,15.036453 c 0,-0.0334 -0.026458,3.467201 -0.058796,7.779327 l -0.058796,7.84023 -1.1376302,0.16403 C 1.8164028,30.937073 1.058404,31.021943 0.94010381,30.98878 0.82180351,30.955621 0.66145831,30.825213 0.58854171,30.698283 0.4809896,30.507213 0.47395831,27.774313 0.47395831,18.499996 Z"
       id="path2" /><path
       style="fill:#ffffff;fill-opacity:1"
       d="m 34.133158,28.434158 c -1.080896,-0.35196 -2.219401,-1.29988 -2.755259,-2.29559 -0.720064,-1.337151 -1.064199,-3.493931 -1.064199,-6.670611 0,-2.90434 0.246218,-4.38629 0.976451,-5.877643 1.057229,-2.159503 2.804056,-3.0860497 5.980893,-3.1725397 l 1.481771,-0.0403 0.0762,1.124483 0.0762,1.12449 -1.333334,-0.0632 c -1.974595,-0.0936 -3.096968,0.40925 -3.899166,1.747353 -0.601965,1.00374 -0.848542,2.12867 -0.963021,4.39229 -0.158806,3.139461 0.232395,5.293321 1.212726,6.675651 0.893753,1.26009 1.801326,1.60929 4.121093,1.58531 l 1.984375,-0.0205 v 1.18338 1.18338 l -2.315625,0.009 c -1.273594,0.005 -2.654169,-0.0812 -3.067945,-0.19166 z"
       id="path3" /></g></svg>
