<?xml version="1.0" encoding="UTF-8" standalone="no"?>
<!-- Created with Inkscape (http://www.inkscape.org/) -->

<svg
   width="220mm"
   height="37mm"
   viewBox="0 0 219.99999 37"
   version="1.1"
   id="svg1"
   xml:space="preserve"
   inkscape:export-filename="VECTOR LOGO VETORIAL.svg"
   inkscape:export-xdpi="96"
   inkscape:export-ydpi="96"
   xmlns:inkscape="http://www.inkscape.org/namespaces/inkscape"
   xmlns:sodipodi="http://sodipodi.sourceforge.net/DTD/sodipodi-0.dtd"
   xmlns="http://www.w3.org/2000/svg"
   xmlns:svg="http://www.w3.org/2000/svg"><sodipodi:namedview
     id="namedview1"
     pagecolor="#ffffff"
     bordercolor="#000000"
     borderopacity="0.25"
     inkscape:showpageshadow="2"
     inkscape:pageopacity="0.0"
     inkscape:pagecheckerboard="0"
     inkscape:deskcolor="#d1d1d1"
     inkscape:document-units="mm"><inkscape:page
       x="0"
       y="0"
       width="220"
       height="37"
       id="page2"
       margin="0"
       bleed="0" /></sodipodi:namedview><defs
     id="defs1" /><g
     inkscape:label="Layer 1"
     inkscape:groupmode="layer"
     id="layer1"><path
       style="fill:#ffffff;fill-opacity:1"
       d="m 49.781665,28.355375 c -1.715576,-0.68427 -1.827805,-1.27366 -1.726447,-9.066881 0.08384,-6.44663 0.120613,-6.88111 0.6419,-7.5849 1.144569,-1.545283 1.102755,-1.540303 12.940789,-1.540303 h 10.847917 l 0.08136,1.124483 0.08136,1.12448 H 62.614843 c -9.797001,0 -10.050387,0.0131 -10.741098,0.55644 -0.677063,0.53257 -0.704123,0.64888 -0.630994,2.71198 l 0.07641,2.15553 9.167268,0.0695 c 10.042878,0.0762 9.642891,0.005 9.3133,1.653141 l -0.158171,0.79086 H 60.414214 51.18687 v 2.91041 c 0,2.58894 0.05114,2.9123 0.463021,2.92748 0.254661,0.009 5.076692,0.002 10.715625,-0.016 l 10.252605,-0.0331 v 1.18338 c 0,1.16633 -0.01429,1.18538 -0.992188,1.32252 -0.545703,0.0765 -5.473573,0.12668 -10.950822,0.11145 -7.89769,-0.022 -10.152092,-0.10485 -10.893441,-0.40054 z m 39.372909,0.18235 c -2.749298,-0.44984 -4.38445,-1.11261 -5.730281,-2.32262 -2.006344,-1.80388 -2.680384,-3.34416 -2.816059,-6.43513 -0.150515,-3.429031 0.321482,-4.865921 2.223016,-6.767451 2.731364,-2.731373 4.273318,-3.0312527 15.054577,-2.927883 l 8.202083,0.0786 0.0814,1.124484 0.0814,1.12448 h -7.807403 c -9.601136,0 -11.285578,0.2929 -13.174422,2.29087 -1.041549,1.10172 -1.331527,2.08323 -1.330467,4.50333 0.0015,3.336161 1.073841,5.081751 3.907563,6.360631 0.909961,0.41067 2.148774,0.4882 9.643056,0.6035 l 8.598953,0.13229 0.0845,1.0314 c 0.0529,0.64628 -0.0459,1.11405 -0.26458,1.25272 -0.44468,0.28196 -14.990253,0.23918 -16.75321,-0.0493 z m 36.656236,-0.0803 c -0.1793,-0.1793 -0.27603,-3.03904 -0.27603,-8.16061 v -7.884581 h -5.68854 -5.68854 v -1.19312 -1.193123 l 13.03073,0.0686 13.03073,0.0686 0.0814,1.124484 0.0814,1.12448 h -5.83605 -5.83605 v 8.069791 8.06979 l -0.59531,0.0262 c -0.32742,0.0144 -0.91758,0.0553 -1.31147,0.0908 -0.39389,0.0355 -0.84037,-0.0596 -0.99219,-0.21146 z m 29.4896,-0.0444 c -2.20225,-0.48591 -2.94119,-0.79993 -4.39679,-1.86843 -2.18925,-1.60706 -3.21176,-4.02573 -3.19819,-7.565081 0.0171,-4.45824 2.54668,-7.43857 7.25592,-8.548853 2.35679,-0.5556497 12.63234,-0.5500697 15.00051,0.008 4.89038,1.152743 7.10868,4.183143 6.84859,9.355794 -0.13568,2.69834 -0.72571,4.21048 -2.31624,5.93599 -2.24266,2.43301 -4.93497,3.09734 -12.39808,3.05928 -3.24685,-0.0166 -5.80606,-0.15848 -6.79572,-0.37684 z m 14.76781,-2.99188 c 2.91941,-1.43805 3.89213,-3.58716 3.35888,-7.421081 -0.34668,-2.49258 -1.09227,-3.53901 -3.32152,-4.66176 l -1.576,-0.79375 -5.48884,-0.0853 c -4.48693,-0.0697 -5.76677,-0.006 -7.01146,0.34961 -2.08486,0.59548 -3.34357,1.47926 -4.20826,2.95473 -0.63981,1.09176 -0.73197,1.52777 -0.74223,3.51166 -0.0106,2.056611 0.0639,2.399081 0.8101,3.720331 0.96425,1.70741 2.55577,2.82888 4.50202,3.17236 0.70991,0.12528 3.67496,0.2069 6.589,0.18136 l 5.29825,-0.0464 z m 16.23254,3.21889 c -0.097,-0.097 -0.17639,-4.33343 -0.17639,-9.414251 V 9.9879113 l 10.2526,0.0877 10.25261,0.0877 1.5875,0.793752 c 3.60834,1.804173 4.34648,5.586403 1.6592,8.501754 -0.84896,0.92101 -1.4236,1.27172 -2.63612,1.60883 -0.85278,0.23709 -1.51762,0.5174 -1.47742,0.6229 0.0402,0.1055 1.41471,1.69245 3.05448,3.52656 l 2.98139,3.33475 h -2.0844 -2.0844 l -2.86808,-3.30729 -2.86808,-3.30729 -6.36329,-1e-5 -6.36328,-10e-6 0.095,3.20772 c 0.0739,2.49523 0.0151,3.25832 -0.26459,3.43554 -0.42479,0.26915 -2.44255,0.3137 -2.69671,0.0595 z m 18.99349,-9.377361 c 0.57525,-0.1597 1.43845,-0.68291 1.91823,-1.16269 0.72141,-0.72141 0.87163,-1.07141 0.86841,-2.02324 -0.005,-1.49386 -0.44157,-2.31731 -1.5842,-2.98854 -0.86968,-0.51089 -1.4157,-0.54885 -9.06138,-0.62998 l -8.13594,-0.0863 v 3.59206 3.592061 l 7.47448,-0.001 c 4.60923,-9.1e-4 7.87542,-0.11279 8.5204,-0.291861 z M 25.141488,27.427365 c -0.756911,-0.93315 -4.533254,-6.08662 -6.640402,-9.061981 -0.721405,-1.01864 -2.234725,-3.03987 -3.362934,-4.49162 -1.128208,-1.45174 -2.051288,-2.73166 -2.051288,-2.84427 0,-0.112603 0.803672,-0.198523 1.785937,-0.190933 l 1.785937,0.0138 3.968751,5.569943 c 2.182812,3.063461 4.534372,6.361231 5.225689,7.328381 0.691316,0.96715 1.361086,1.79319 1.488376,1.83565 0.189213,0.0631 2.825141,-3.38407 4.530727,-5.92514 1.299706,-1.936381 6.658808,-8.796794 6.962872,-8.913474 0.200188,-0.0768 0.974747,-0.0611 1.72124,0.0348 l 1.35726,0.1745 -1.410821,1.852083 c -3.145333,4.1291 -8.716095,11.634971 -9.873787,13.303631 -0.67831,0.97769 -1.360682,1.86509 -1.516382,1.97201 -0.1557,0.10691 -0.955974,0.19621 -1.778386,0.19843 -1.369737,0.004 -1.553862,-0.0682 -2.192789,-0.85584 z m -5.716895,-2.08311 c -0.939137,-1.0815 -2.779084,-3.379 -4.088771,-5.10555 -1.309687,-1.726551 -3.381118,-4.402171 -4.603178,-5.945831 -1.2220601,-1.54366 -2.3379671,-2.95548 -2.4797921,-3.13738 -0.200946,-0.257733 0.155921,-0.330733 1.616757,-0.330733 H 11.74423 l 1.053425,1.521353 c 1.787292,2.5812 5.838889,8.053861 7.190626,9.712671 1.368668,1.67958 1.777191,3.02405 1.362303,4.48339 l -0.21847,0.76845 z M 157.07959,7.8845217 c -1.3875,-0.51327 -1.31073,-2.4246902 0.11172,-2.7817005 1.46513,-0.36773 2.84709,1.3283607 1.9566,2.4013305 -0.3796,0.45739 -1.3685,0.63925 -2.06832,0.38037 z m 9.26041,0 c -1.38165,-0.51111 -1.31207,-2.4243502 0.10107,-2.7790305 1.19634,-0.30026 2.07611,0.17643 2.17271,1.1772507 0.0463,0.4798298 -0.0466,1.0300398 -0.20652,1.2226998 -0.37865,0.45624 -1.36816,0.63769 -2.06726,0.37908 z"
       id="path1" /></g></svg>
