<?xml version="1.0" encoding="UTF-8" standalone="no"?>
<svg
   width="220mm"
   height="37mm"
   viewBox="0 0 219.99999 37"
   version="1.1"
   id="svg1"
   preserveAspectRatio="xMidYMid meet"
   xmlns="http://www.w3.org/2000/svg">
     id="namedview1"
     pagecolor="#ffffff"
     bordercolor="#000000"
     borderopacity="0.25"
     inkscape:showpageshadow="2"
     inkscape:pageopacity="0.0"
     inkscape:pagecheckerboard="0"
     inkscape:deskcolor="#d1d1d1"
     inkscape:document-units="mm"><inkscape:page
       x="0"
       y="0"
       width="220"
       height="37"
       id="page2"
       margin="0"
       bleed="0" /></sodipodi:namedview><defs
     id="defs1" /><g
     inkscape:label="Layer 1"
     inkscape:groupmode="layer"
     id="layer1"><path
       style="fill:#ffffff;fill-opacity:1"
       d="m 49.781665,28.355375 c -1.715576,-0.68427 -1.827805,-1.27366 -1.726447,-9.066881 0.08384,-6.44663 0.120613,-6.88111 0.6419,-7.5849 1.144569,-1.545283 1.102755,-1.540303 12.940789,-1.540303 h 10.847917 l 0.08136,1.124483 0.08136,1.12448 H 62.614843 c -9.797001,0 -10.050387,0.0131 -10.741098,0.55644 -0.677063,0.53257 -0.704123,0.64888 -0.630994,2.71198 l 0.07641,2.15553 9.167268,0.0695 c 10.042878,0.0762 9.642891,0.005 9.3133,1.653141 l -0.158171,0.79086 H 60.414214 51.18687 v 2.91041 c 0,2.58894 0.05114,2.9123 0.463021,2.92748 0.254661,0.009 5.076692,0.002 10.715625,-0.016 l 10.252605,-0.0331 v 1.18338 c 0,1.16633 -0.01429,1.18538 -0.992188,1.32252 -0.545703,0.0765 -5.473573,0.12668 -10.950822,0.11145 -7.89769,-0.022 -10.152092,-0.10485 -10.893441,-0.40054 z m 39.372909,0.18235 c -2.749298,-0.44984 -4.38445,-1.11261 -5.730281,-2.32262 -2.006344,-1.80388 -2.680384,-3.34416 -2.816059,-6.43513 -0.150515,-3.429031 0.321482,-4.865921 2.223016,-6.767451 2.731364,-2.731373 4.273318,-3.0312527 15.054577,-2.927883 l 8.202083,0.0786 0.0814,1.124484 0.0814,1.12448 h -7.807403 c -9.601136,0 -11.285578,0.2929 -13.174422,2.29087 -1.041549,1.10172 -1.331527,2.08323 -1.330467,4.50333 0.0015,3.336161 1.073841,5.081751 3.907563,6.360631 0.909961,0.41067 2.148774,0.4882 9.643056,0.6035 l 8.598953,0.13229 0.0845,1.0314 c 0.0529,0.64628 -0.0459,1.11405 -0.26458,1.25272 -0.44468,0.28196 -14.990253,0.23918 -16.75321,-0.0493 z m 36.656236,-0.0803 c -0.1793,-0.1793 -0.27603,-3.03904 -0.27603,-8.16061 v -7.884581 h -5.68854 -5.68854 v -1.19312 -1.193123 l 13.03073,0.0686 13.03073,0.0686 0.0814,1.124484 0.0814,1.12448 h -5.83605 -5.83605 v 8.069791 8.06979 l -0.59531,0.0262 c -0.32742,0.0144 -0.91758,0.0553 -1.31147,0.0908 -0.39389,0.0355 -0.84037,-0.0596 -0.99219,-0.21146 z m 29.4896,-0.0444 c -2.20225,-0.48591 -2.94119,-0.79993 -4.39679,-1.86843 -2.18925,-1.60706 -3.21176,-4.02573 -3.19819,-7.565081 0.0171,-4.45824 2.54668,-7.43857 7.25592,-8.548853 2.35679,-0.5556497 12.63234,-0.5625077 15.49127,-0.0098 l 1.46293,0.27756 -0.0814,1.12448 -0.0814,1.124484 -1.16223,-0.2274 c -1.44629,-0.283174 -4.74211,-0.36589 -6.97656,-0.162016 -3.1375,0.291761 -5.03033,1.343061 -6.01896,3.349931 -1.22816,2.57589 -0.52179,6.36841 1.52881,8.12717 1.28866,1.07877 2.87124,1.46633 6.97827,1.66563 l 3.46652,0.16492 0.0814,1.12448 0.0814,1.12448 -1.51825,0.13779 c -3.19631,0.28929 -7.66877,-0.0107 -10.08571,-0.69178 z m 28.54779,-0.002 c -0.3586,-0.1793 -0.48926,-1.07932 -0.48926,-3.40649 v -3.17 H 193.847 l -12.46771,-0.0357 c -12.41108,-0.0355 -12.47147,-0.0379 -13.26733,-0.52353 -0.95847,-0.58926 -1.48309,-1.62638 -1.48309,-2.87769 0,-2.62657 1.18169,-3.99265 4.32876,-5.04999 1.43126,-0.47607 2.46234,-0.54128 11.35526,-0.72198 l 9.69397,-0.20106 0.0814,1.124483 0.0814,1.12448 h -9.55688 c -5.25628,0 -9.80604,0.0699 -10.11057,0.1554 -0.66098,0.18179 -1.54299,1.06383 -1.54299,1.52756 0,0.38718 0.86814,1.21872 1.68589,1.61068 0.41906,0.19803 3.91803,0.30662 12.68659,0.39281 l 12.08769,0.11933 v 3.36357 c 0,2.97733 -0.04,3.42154 -0.46302,3.75282 -0.58387,0.45826 -1.73852,0.50842 -13.80948,0.60211 l -13.18402,0.0979 v -1.19312 -1.19312 h 12.48539 c 10.97226,0 12.54821,-0.0321 13.25452,-0.26531 0.45215,-0.14601 0.92146,-0.4902 1.04294,-0.76486 0.22829,-0.52256 0.14479,-0.70633 -0.77644,-1.76494 l -0.83181,-0.90283 -11.88709,-0.0387 c -9.97699,-0.0324 -11.97933,-0.0876 -12.34827,-0.33987 -0.51858,-0.35842 -0.60282,-1.02419 -0.27945,-2.1652 0.18768,-0.65927 0.29667,-0.71688 4.56825,-2.56346 l 4.37334,-1.88887 12.48538,-0.0631 c 13.15847,-0.0667 12.97652,-0.052 13.13841,0.74316 0.0963,0.47914 -0.30733,1.47978 -1.04882,2.54666 -0.53707,0.76854 -1.13098,1.33529 -1.31876,1.25943 z M 8.9947227,27.967055 c -0.38435,-0.0973 -0.58892,-0.64893 -0.58892,-1.66916 v -1.46761 h 6.0752633 6.075263 v 1.46761 c 0,1.01739 -0.2032,1.59027 -0.58892,1.66916 -0.32309,0.065 -3.72556,0.11097 -7.3842573,0.10152 -3.65869,-0.01 -7.26649,-0.0441 -8.06184,-0.10151 z m 11.0629973,-5.86203 c 0.34701,-0.32945 0.52071,-1.11303 0.52071,-2.33333 0,-2.84657 -1.19226,-3.6395 -5.64801,-3.6395 -2.25641,0 -2.81649,0.1179 -3.54177,0.7432 -1.23619,1.10177 -1.23619,3.56186 0,4.66363 0.72528,0.62529 1.28536,0.7432 3.54177,0.7432 2.27066,0 2.83174,-0.11788 5.1273,-0.20753 z m -4.81667,-2.43801 c 1.10177,0 1.31876,-0.18773 1.31876,-1.09752 0,-0.90979 -0.21699,-1.09752 -1.31876,-1.09752 -1.10177,0 -1.31876,0.18773 -1.31876,1.09752 0,0.90979 0.21699,1.09752 1.31876,1.09752 z"
       id="path1" /></g></svg>
