<?xml version="1.0" encoding="UTF-8" standalone="no"?>
<svg
   width="70"
   height="45"
   viewBox="65 125 70 45"
   version="1.1"
   xmlns="http://www.w3.org/2000/svg">
<path
   style="fill:#ffffff;fill-opacity:1;stroke-width:2.53176"
   d="m 98.046969,162.17407 c -1.916346,-2.36252 -11.477123,-15.40986 -16.811916,-22.94275 -1.826419,-2.57896 -5.657785,-7.69622 -8.514137,-11.3717 -2.856353,-3.67546 -5.193368,-6.91591 -5.193368,-7.201 0,-0.28508 2.034704,-0.50261 4.521567,-0.4834 l 4.521558,0.0349 10.047923,14.10175 c 5.526356,7.75594 11.479942,16.1051 13.230196,18.55369 1.750218,2.44859 3.445918,4.53993 3.768188,4.64742 0.47903,0.15976 7.15258,-8.56765 11.47072,-15.00102 3.29053,-4.90245 16.8585,-22.27136 17.6283,-22.56676 0.50683,-0.19444 2.46784,-0.15469 4.35777,0.0881 l 3.43625,0.44179 -3.57185,4.68902 c -7.96322,10.45388 -22.06706,29.45694 -24.99806,33.68158 -1.71731,2.47528 -3.44491,4.72196 -3.83911,4.99265 -0.39419,0.27067 -2.42028,0.49676 -4.50245,0.50238 -3.46782,0.0102 -3.933994,-0.17266 -5.551581,-2.16678 z m -14.473813,-5.27394 c -2.37767,-2.7381 -7.035979,-8.55481 -10.35179,-12.92602 -3.315812,-4.37121 -8.560172,-11.14523 -11.654134,-15.05341 -3.093961,-3.90817 -5.919169,-7.48256 -6.278235,-7.94309 -0.508747,-0.6525 0.394754,-0.83732 4.093238,-0.83732 h 4.746089 l 2.667016,3.85169 c 4.524996,6.53497 14.782662,20.39042 18.204936,24.59014 3.465147,4.25229 4.499419,7.65616 3.449017,11.35086 l -0.553115,1.94553 z" />
</svg>
