<?xml version="1.0" encoding="UTF-8" standalone="no"?>
<!-- Created with Inkscape (http://www.inkscape.org/) -->

<svg
   width="175.68343mm"
   height="22.236885mm"
   viewBox="0 0 175.68343 22.236885"
   version="1.1"
   id="svg1"
   xml:space="preserve"
   xmlns="http://www.w3.org/2000/svg"
   xmlns:svg="http://www.w3.org/2000/svg"><defs
     id="defs1" /><g
     id="layer1"
     transform="translate(-16.034754,-126.8854)"><path
       style="fill:#ffffff"
       d="m 150.89117,149.0231 c -2.83169,-0.21768 -5.01773,-0.95759 -6.28769,-2.1282 -1.64423,-1.5156 -2.4454,-3.64745 -2.4454,-6.50701 0,-1.41129 0.1165,-2.18766 0.50831,-3.38739 0.36156,-1.10708 0.92263,-1.95302 1.912,-2.88275 2.07813,-1.95287 5.24741,-2.62371 11.6134,-2.4582 2.91326,0.0757 3.8539,0.17286 5.54681,0.57271 3.7068,0.8755 5.78966,3.43571 6.05201,7.43901 0.12853,1.96118 -0.24059,3.86676 -1.06784,5.51273 -1.16839,2.32475 -3.60757,3.52199 -7.832,3.84425 -1.67367,0.12767 -6.3106,0.12469 -7.9996,-0.005 z m 8.95033,-2.79924 c 2.69589,-0.48455 3.66097,-1.13828 4.23242,-2.867 0.88085,-2.66469 0.43536,-6.15866 -0.9576,-7.51049 -0.92465,-0.89735 -2.56046,-1.38929 -5.28646,-1.58982 -1.87881,-0.13821 -5.56572,-0.0776 -7.03007,0.11559 -1.04583,0.13797 -2.73558,0.66356 -3.41677,1.06276 -1.33352,0.7815 -2.1298,2.95596 -1.9932,5.44298 0.2034,3.70312 1.61027,5.09074 5.5834,5.50698 1.53389,0.1607 7.7014,0.0487 8.86828,-0.161 z m 12.02767,2.51332 c -0.0404,-0.0404 -0.0735,-0.63536 -0.0735,-1.32213 v -1.24867 l 0.41316,-0.007 c 0.22724,-0.004 3.5119,-0.0209 7.29923,-0.0381 4.85239,-0.0221 7.05045,-0.0703 7.44266,-0.16298 1.25546,-0.2968 1.64138,-0.83102 1.57337,-2.17793 -0.0479,-0.94904 -0.25332,-1.2975 -0.97882,-1.66063 -0.7839,-0.39236 -1.77183,-0.4663 -6.27437,-0.46964 -5.02452,-0.004 -6.46538,-0.12731 -7.75808,-0.66546 -1.04663,-0.43571 -1.81205,-1.13293 -2.23417,-2.0351 -0.28721,-0.61383 -0.30931,-0.75947 -0.30931,-2.03828 0,-1.31676 0.0153,-1.40941 0.34758,-2.11084 0.57603,-1.21583 1.63656,-2.02924 3.23317,-2.47977 0.66345,-0.18722 1.2813,-0.20209 8.39546,-0.20209 5.65076,0 7.71285,0.0336 7.80634,0.127 0.12877,0.12872 0.1626,2.33044 0.0377,2.45548 -0.0339,0.034 -3.51578,0.0866 -7.73744,0.11686 -8.41718,0.0604 -8.1709,0.04 -8.70667,0.72113 -0.49297,0.62671 -0.43653,2.01773 0.10699,2.63677 0.69544,0.79206 1.88483,0.93399 7.86508,0.93854 3.8717,0.003 4.52754,0.0284 5.39868,0.20963 2.3454,0.48789 3.45402,1.45598 3.91245,3.41649 0.172,0.73554 0.0845,2.39575 -0.16311,3.09515 -0.39062,1.1033 -1.27391,1.9417 -2.54782,2.41833 -1.29745,0.48544 -2.57373,0.55645 -10.00112,0.55645 -3.83575,0 -7.00714,-0.0331 -7.04754,-0.0735 z M 31.742936,148.28729 c -0.273254,-0.29646 -2.211565,-3.01481 -3.633473,-5.09569 -0.39337,-0.57568 -1.285871,-1.86475 -1.983335,-2.86461 -5.658056,-8.11116 -5.582733,-7.99765 -5.417128,-8.16326 0.06143,-0.0614 0.777063,-0.0934 1.695222,-0.0756 l 1.588919,0.0307 1.101771,1.62339 c 1.787847,2.63429 4.318965,6.31371 5.401367,7.85184 0.554363,0.78777 1.41742,2.03966 1.917906,2.78198 0.500486,0.74232 0.958116,1.37942 1.016955,1.41579 0.138464,0.0856 0.07098,0.17822 2.535998,-3.48162 2.762227,-4.1011 5.934469,-8.72364 6.861572,-9.99857 0.171343,-0.23563 0.252284,-0.24781 1.63497,-0.24621 0.800087,9.3e-4 1.525928,0.0467 1.612981,0.10184 0.216064,0.13672 0.191981,0.17892 -1.535492,2.69082 -1.928457,2.80416 -5.070124,7.42282 -7.128475,10.4798 -0.896832,1.33194 -1.797507,2.60862 -2.0015,2.83706 l -0.370896,0.41536 h -1.509046 c -1.505078,0 -1.50978,-8e-4 -1.788316,-0.30299 z m 19.475159,0.1813 c -1.284285,-0.18739 -1.935853,-0.68503 -2.399004,-1.83224 -0.254412,-0.63017 -0.256717,-0.67769 -0.28896,-5.95679 -0.02789,-4.56675 -0.0078,-5.41807 0.141802,-6.00194 0.335233,-1.30854 0.836051,-1.86943 2.094242,-2.34545 0.518485,-0.19616 1.010982,-0.21025 8.373459,-0.23951 4.640701,-0.0184 7.886028,0.0102 7.978573,0.0704 0.243305,0.15831 0.291714,2.24671 0.05751,2.48091 -0.15531,0.15531 -0.97724,0.17416 -7.595244,0.17416 h -7.421088 l -0.228351,0.2903 c -0.208513,0.26508 -0.228351,0.43737 -0.228351,1.98319 v 1.69288 l 3.167592,0.015 c 1.742175,0.008 4.712674,0.004 6.601108,-0.009 2.360593,-0.0165 3.505348,0.0145 3.663389,0.0991 0.207971,0.1113 0.229871,0.22152 0.229871,1.15682 0,0.56858 -0.03009,1.11222 -0.06688,1.20807 -0.05998,0.1563 -0.764639,0.17427 -6.83098,0.17427 h -6.764104 v 2.02121 c 0,1.91473 0.01221,2.03225 0.231875,2.23108 0.222522,0.20142 0.533516,0.21109 7.709722,0.23968 7.404346,0.0295 7.479031,0.032 7.598409,0.25506 0.150571,0.28134 0.01972,2.21295 -0.15785,2.33017 -0.171977,0.11352 -15.073134,0.0784 -15.866741,-0.0374 z m 20.013476,0.0487 c -0.108431,-0.0438 -0.137722,-1.78509 -0.137722,-8.18771 0,-7.31381 0.01754,-8.13887 0.174277,-8.19901 0.226817,-0.087 2.619766,-0.087 2.846582,0 0.153433,0.0589 0.174277,0.45312 0.174277,3.2963 0,1.77618 0.0301,3.30785 0.06688,3.4037 0.05681,0.14806 0.312205,0.17428 1.697314,0.17428 h 1.630438 l 1.580454,-1.16149 c 0.86925,-0.63883 1.902722,-1.40601 2.296606,-1.70486 0.393883,-0.29885 1.757324,-1.32554 3.02987,-2.28154 l 2.313719,-1.73818 1.87301,-0.0298 c 1.867401,-0.0297 2.235965,0.0284 2.11863,0.33421 -0.03406,0.0888 -1.516285,1.24903 -3.293824,2.57836 -1.777539,1.32933 -3.360102,2.51359 -3.516807,2.6317 -0.156705,0.1181 -0.967195,0.72636 -1.80109,1.3517 -0.833894,0.62533 -1.498275,1.15486 -1.476401,1.17673 0.05297,0.053 5.264103,3.69148 7.179812,5.01308 3.328954,2.29656 4.270744,3.00423 4.236356,3.18324 -0.02956,0.15387 -0.302929,0.18109 -2.07994,0.20707 l -2.045907,0.0299 -1.808867,-1.27161 c -0.994878,-0.69938 -2.230296,-1.58014 -2.745374,-1.95724 -1.193208,-0.87356 -5.010217,-3.46106 -5.412685,-3.66919 -0.399472,-0.20657 -3.50759,-0.22819 -3.709978,-0.0258 -0.09699,0.097 -0.132213,1.01836 -0.132213,3.4588 0,2.93176 -0.02068,3.33451 -0.174277,3.39345 -0.206848,0.0794 -2.6843,0.0741 -2.883137,-0.006 z m 30.825919,-0.14014 c -0.0751,-0.14034 -0.11405,-2.54787 -0.11405,-7.05005 v -6.83692 l -4.269366,-0.0288 -4.269363,-0.0288 v -1.15686 -1.15686 l 10.014119,-0.0281 c 7.30752,-0.0205 10.05459,0.005 10.16384,0.0961 0.19775,0.16412 0.20732,1.85045 0.012,2.114 -0.12427,0.16767 -0.5415,0.18857 -4.26937,0.21387 l -4.13164,0.028 -0.0284,6.93517 c -0.022,5.38018 -0.0591,6.95466 -0.16526,7.0221 -0.0753,0.0478 -0.7425,0.0877 -1.48268,0.0886 -1.21876,0.002 -1.35656,-0.0184 -1.45985,-0.21142 z m 15.33186,0.0733 c -0.13535,-0.16308 -0.22343,-16.03835 -0.0902,-16.25395 0.1003,-0.16229 2.68143,-0.18434 2.93367,-0.025 0.13971,0.0882 0.17024,0.61622 0.19745,3.41459 l 0.0322,3.31022 7.29459,-0.0283 7.2946,-0.0283 0.0292,-3.24097 c 0.0196,-2.16665 0.0697,-3.2897 0.15122,-3.38795 0.18993,-0.22885 2.66396,-0.2065 2.89663,0.0262 0.15417,0.15416 0.17314,1.03613 0.17314,8.05017 0,5.21914 -0.0385,7.94894 -0.11405,8.09015 -0.10331,0.19302 -0.24222,0.21311 -1.4739,0.21311 -0.99953,0 -1.39219,-0.039 -1.4819,-0.14706 -0.082,-0.0988 -0.13161,-1.26431 -0.15121,-3.55322 l -0.0292,-3.40615 h -7.27169 -7.27169 l -0.0551,3.41549 c -0.0303,1.87852 -0.0952,3.47747 -0.14422,3.55321 -0.12668,0.19574 -2.75701,0.19384 -2.91962,-0.002 z m -90.113254,-1.20984 c -0.361886,-0.43933 -1.325448,-1.69122 -2.141248,-2.78197 -1.745357,-2.33361 -6.036314,-8.02644 -7.764775,-10.30156 -1.468783,-1.93332 -1.431427,-1.87331 -1.241166,-1.99382 0.183488,-0.11622 3.079483,-0.12983 3.23998,-0.0152 0.119968,0.0857 0.888438,1.12632 2.389747,3.23616 0.50181,0.70521 1.928765,2.65605 3.171012,4.33518 1.242247,1.67914 2.556109,3.45707 2.919693,3.95097 l 0.661063,0.89799 -0.02854,1.21219 c -0.04196,1.78261 -0.116306,2.25887 -0.352603,2.25887 -0.108355,0 -0.487917,-0.35537 -0.853168,-0.79878 z M 150.66037,129.97453 c -1.20997,-0.29729 -1.56669,-1.91669 -0.60769,-2.7587 0.31113,-0.27318 0.4721,-0.33044 0.92887,-0.33044 0.72696,0 1.14843,0.23304 1.43407,0.79294 0.66249,1.29858 -0.36181,2.63856 -1.75525,2.2962 z m 7.76908,-0.05 c -0.56553,-0.20653 -0.82433,-0.46029 -0.97196,-0.95305 -0.32869,-1.09707 0.42931,-2.08605 1.59885,-2.08605 1.12684,0 1.88449,1.4085 1.28581,2.39036 -0.40586,0.66563 -1.16314,0.92248 -1.9127,0.64874 z"
       id="path1" /></g></svg>
