<svg
   width="82.13681"
   height="46.589333"
   viewBox="0 0 82.13681 46.589333"
   fill="none"
   version="1.1"
   xmlns="http://www.w3.org/2000/svg">
  <defs/>
  <mask
     id="path-1-inside-1_5001_10"
     fill="#ffffff">
    <path
       d="m 363.08,59.7326 c -7.624,-0.5874 -13.51,-2.5838 -16.929,-5.7424 -4.427,-4.0894 -6.584,-9.8416 -6.584,-17.5574 0,-3.808 0.314,-5.9028 1.369,-9.1399 0.973,-2.9872 2.484,-5.2697 5.147,-7.7783 5.595,-5.2693 14.128,-7.0794 31.268,-6.6328 7.843,0.2042 10.376,0.4664 14.934,1.5453 9.98,2.3623 15.587,9.2703 16.294,20.0721 0.346,5.2917 -0.648,10.4334 -2.875,14.8746 -3.146,6.2727 -9.713,9.5031 -21.087,10.3727 -4.506,0.3444 -16.99,0.336 -21.537,-0.0139 z m 24.097,-7.553 c 7.258,-1.3074 9.857,-3.0714 11.395,-7.7358 2.372,-7.19 1.172,-16.6175 -2.578,-20.265 -2.49,-2.4213 -6.894,-3.7487 -14.233,-4.2897 -5.058,-0.373 -14.985,-0.2094 -18.927,0.3119 -2.816,0.3722 -7.365,1.7904 -9.199,2.8675 -3.591,2.1087 -5.735,7.9759 -5.367,14.6864 0.548,9.9919 4.336,13.736 15.033,14.8591 4.129,0.4336 20.734,0.1314 23.876,-0.4344 z m 32.383,6.7815 c -0.109,-0.109 -0.198,-1.7143 -0.198,-3.5674 v -3.3692 l 1.112,-0.0189 c 0.612,-0.0108 9.455,-0.0564 19.652,-0.1028 13.064,-0.0596 18.982,-0.1897 20.038,-0.4397 3.38,-0.8009 4.419,-2.2423 4.236,-5.8766 -0.129,-2.5607 -0.682,-3.501 -2.635,-4.4808 -2.11,-1.0586 -4.77,-1.2581 -16.893,-1.2671 -13.527,-0.0108 -17.407,-0.3436 -20.887,-1.7956 -2.818,-1.1757 -4.879,-3.0569 -6.015,-5.4912 -0.774,-1.6562 -0.833,-2.0492 -0.833,-5.4997 0,-3.553 0.041,-3.8029 0.936,-5.6956 1.551,-3.2805 4.406,-5.4753 8.705,-6.6909 1.786,-0.5052 3.449,-0.5453 22.603,-0.5453 15.214,0 20.766,0.0906 21.017,0.3427 0.347,0.3473 0.438,6.288 0.102,6.6254 -0.091,0.0917 -9.466,0.2337 -20.832,0.3153 -22.662,0.163 -21.999,0.108 -23.441,1.9458 -1.328,1.691 -1.176,5.4443 0.288,7.1146 1.872,2.1371 5.074,2.5201 21.175,2.5324 10.424,0.0081 12.19,0.0766 14.535,0.5656 6.315,1.3165 9.3,3.9286 10.534,9.2185 0.463,1.9847 0.228,6.4643 -0.439,8.3514 -1.052,2.977 -3.43,5.2391 -6.86,6.5252 -3.493,1.3098 -6.929,1.5015 -26.926,1.5015 -10.327,0 -18.866,-0.0886 -18.974,-0.1976 z M 42.2918,57.7472 C 41.5561,56.9473 36.3375,49.6126 32.5093,43.9979 31.4502,42.4446 29.0472,38.9664 27.1694,36.2685 11.936,14.3828 12.1388,14.689 12.5847,14.2422 c 0.1654,-0.1657 2.0921,-0.252 4.5641,-0.204 l 4.2779,0.0828 2.9663,4.3803 c 4.8135,7.1079 11.6282,17.0358 14.5424,21.186 1.4925,2.1256 3.8162,5.5035 5.1636,7.5065 1.3475,2.0029 2.5796,3.7219 2.738,3.8201 0.3728,0.2309 0.1911,0.4809 6.8278,-9.3942 7.4369,-11.0657 15.9776,-23.5384 18.4737,-26.9784 0.4613,-0.6358 0.6792,-0.6687 4.4019,-0.6644 2.1541,0.0025 4.1083,0.126 4.3427,0.2748 0.5817,0.3689 0.5169,0.4828 -4.1341,7.2605 -5.192,7.5662 -13.6505,20.0284 -19.1923,28.2768 -2.4145,3.5939 -4.8395,7.0387 -5.3887,7.6551 l -0.9986,1.1207 h -4.0628 c -4.0522,0 -4.0649,-0.0022 -4.8148,-0.8176 z M 30.2655,54.923 C 29.2912,53.7376 26.697,50.3597 24.5006,47.4166 19.8015,41.12 8.24875,25.7595 3.59514,19.6207 -0.359329,14.4041 -0.258757,14.566 0.253491,14.2409 0.747504,13.9273 8.54452,13.8906 8.97663,14.1999 c 0.32299,0.2312 2.39197,3.039 6.43397,8.7319 1.3511,1.9028 5.1929,7.1666 8.5375,11.6973 3.3446,4.5307 6.8819,9.3279 7.8608,10.6606 l 1.7798,2.423 -0.0768,3.2707 c -0.113,4.8099 -0.3132,6.095 -0.9493,6.095 -0.2918,0 -1.3137,-0.9589 -2.2971,-2.1554 z"
       id="path1" />
  </mask>
  <path
     d="M 42.2918,57.7472 C 41.5561,56.9473 36.3375,49.6126 32.5093,43.9979 31.4502,42.4446 29.0472,38.9664 27.1694,36.2685 11.936,14.3828 12.1388,14.689 12.5847,14.2422 c 0.1654,-0.1657 2.0921,-0.252 4.5641,-0.204 l 4.2779,0.0828 2.9663,4.3803 c 4.8135,7.1079 11.6282,17.0358 14.5424,21.186 1.4925,2.1256 3.8162,5.5035 5.1636,7.5065 1.3475,2.0029 2.5796,3.7219 2.738,3.8201 0.3728,0.2309 0.1911,0.4809 6.8278,-9.3942 7.4369,-11.0657 15.9776,-23.5384 18.4737,-26.9784 0.4613,-0.6358 0.6792,-0.6687 4.4019,-0.6644 2.1541,0.0025 4.1083,0.126 4.3427,0.2748 0.5817,0.3689 0.5169,0.4828 -4.1341,7.2605 -5.192,7.5662 -13.6505,20.0284 -19.1923,28.2768 -2.4145,3.5939 -4.8395,7.0387 -5.3887,7.6551 l -0.9986,1.1207 h -4.0628 c -4.0522,0 -4.0649,-0.0022 -4.8148,-0.8176 z M 30.2655,54.923 C 29.2912,53.7376 26.697,50.3597 24.5006,47.4166 19.8015,41.12 8.24875,25.7595 3.59514,19.6207 -0.359329,14.4041 -0.258757,14.566 0.253491,14.2409 0.747504,13.9273 8.54452,13.8906 8.97663,14.1999 c 0.32299,0.2312 2.39197,3.039 6.43397,8.7319 1.3511,1.9028 5.1929,7.1666 8.5375,11.6973 3.3446,4.5307 6.8819,9.3279 7.8608,10.6606 l 1.7798,2.423 -0.0768,3.2707 c -0.113,4.8099 -0.3132,6.095 -0.9493,6.095 -0.2918,0 -1.3137,-0.9589 -2.2971,-2.1554 z"
     fill="#ffffff"
     stroke="#ffffff"
     stroke-width="2"
     mask="url(#path-1-inside-1_5001_10)"
     id="path2"
     transform="translate(-5.4670805e-6,-12.976096)"
     style="fill:#ffffff" />
</svg>
