<?xml version="1.0" encoding="UTF-8" standalone="no"?>
<!-- Created with Inkscape (http://www.inkscape.org/) -->

<svg
   width="91.167854mm"
   height="91.094017mm"
   viewBox="0 0 91.167854 91.094017"
   version="1.1"
   id="svg1"
   xml:space="preserve"
   xmlns="http://www.w3.org/2000/svg"
   xmlns:svg="http://www.w3.org/2000/svg"><defs
     id="defs1" /><g
     id="layer1"
     transform="translate(-59.416072,-102.95301)"><path
       style="fill:#39ba6b;stroke:none"
       d="m 59.416074,194.04701 c 5.659431,-0.76209 11.433152,-2.81708 16.933333,-4.34562 2.171694,-0.60353 4.879131,-1.7986 7.143749,-1.76511 1.543858,0.0228 3.346679,1.32895 4.7625,1.91414 2.565961,1.06057 5.234326,1.77285 7.9375,2.37512 10.096154,2.24945 21.327144,0.5765 30.427074,-4.34561 6.37614,-3.44882 11.71583,-8.3103 15.91195,-14.20584 3.1033,-4.36013 5.31556,-9.36989 6.61112,-14.55208 1.20073,-4.80293 1.79916,-10.13696 1.21389,-15.08125 -3.43337,-29.00482 -32.53883,-48.411487 -60.514034,-38.44604 -6.571284,2.34085 -12.295054,6.26785 -17.197712,11.19396 -4.941754,4.96538 -8.561876,11.31231 -10.613955,17.99166 -2.438229,7.93624 -2.638237,16.57559 -0.52937,24.60625 0.870051,3.3132 3.946426,7.5426 3.984468,10.84792 0.01821,1.58232 -0.818859,3.2365 -1.175925,4.7625 -1.450721,6.19997 -4.376485,12.70678 -4.894588,19.05 m 11.90625,-11.90625 c 0.550929,-4.08796 3.897739,-9.42935 3.310761,-13.49375 -0.458454,-3.17448 -3.452665,-6.85102 -4.496487,-10.05417 -2.380291,-7.30433 -2.092084,-16.1446 0.710252,-23.28333 2.223663,-5.6646 5.561666,-10.91176 10.265057,-14.8379 4.392609,-3.66672 9.277263,-6.37815 14.816665,-7.87625 4.297138,-1.16214 9.338048,-1.63083 13.758328,-0.94217 6.55517,1.02126 12.68644,3.23965 17.99166,7.31442 15.2534,11.71566 18.73169,33.79533 8.02488,49.6794 -2.79459,4.14592 -6.45829,7.62294 -10.67071,10.30446 -8.62073,5.48773 -19.51024,7.1403 -29.368741,4.39992 -3.375351,-0.93825 -7.532187,-4.38549 -10.847916,-4.54773 -4.210507,-0.20603 -9.331687,2.52949 -13.493749,3.3371 M 90.372323,127.4996 c -8.36205,1.35874 -7.600158,12.29002 -4.813131,17.86408 4.634314,9.26863 13.26057,17.3792 23.069368,20.86452 3.69033,1.31126 7.48965,2.58849 11.37709,1.35292 3.63782,-1.15623 9.3366,-5.59939 6.61213,-10.04253 -0.98914,-1.61312 -3.14649,-2.53036 -4.76005,-3.38548 -1.34795,-0.71436 -2.6676,-1.49228 -4.23333,-1.58934 -3.85712,-0.23908 -4.75242,6.09446 -7.9375,5.25554 -3.34198,-0.88025 -6.80717,-3.50868 -9.26042,-5.85146 -1.779078,-1.69897 -5.202205,-4.81356 -5.575434,-7.39792 -0.244332,-1.69185 2.397866,-3.62691 2.915116,-5.29167 1.1576,-3.72577 -2.806401,-12.52407 -7.393839,-11.77866 z"
       id="path1" /></g></svg>
